<svg xmlns="http://www.w3.org/2000/svg" xmlns:xlink="http://www.w3.org/1999/xlink" version="1.1" id="CombinedIcon" x="0px" y="0px" width="32px" height="32px" viewBox="5.0 -10.0 100.0 135.0" enable-background="new 0 0 100 100" xml:space="preserve"><g id='gmarkerbase' transform='scale(3.95)'><svg xmlns:dc="http://purl.org/dc/elements/1.1/" xmlns:cc="http://creativecommons.org/ns#" xmlns:rdf="http://www.w3.org/1999/02/22-rdf-syntax-ns#" xmlns:svg="http://www.w3.org/2000/svg" xmlns="http://www.w3.org/2000/svg" xmlns:sodipodi="http://sodipodi.sourceforge.net/DTD/sodipodi-0.dtd" xmlns:inkscape="http://www.inkscape.org/namespaces/inkscape" id="markerbase" x="0px" y="0px" width="32px" height="32px" viewBox="0 0 32 32" enable-background="new 0 0 32 32" xml:space="preserve" version="0.48.4 r9939" docname="community.svg" class="injected-svg" style=""><metadata id="metadata19"><rdf:RDF><cc:Work about=""><dc:format>image/svg+xml</dc:format><dc:type resource="http://purl.org/dc/dcmitype/StillImage"></dc:type><dc:title></dc:title></cc:Work></rdf:RDF></metadata><defs id="defs17"></defs><sodipodi:namedview pagecolor="#ffffff" bordercolor="#666666" borderopacity="1" objecttolerance="10" gridtolerance="10" guidetolerance="10" pageopacity="0" pageshadow="2" window-width="640" window-height="480" id="namedview15" showgrid="false" zoom="7.375" cx="16" cy="16" window-x="488" window-y="115" window-maximized="0" current-layer="Layer_1"></sodipodi:namedview>
<path fill="#00dee3" d="M16,1c8.284,0,15,6.716,15,15s-6.716,15-15,15S1,24.284,1,16S7.716,1,16,1z" id="path3"></path>

</svg></g><g id='gmarkericon' transform='translate(18,4)'><g transform='scale(0.9)'><svg xmlns="http://www.w3.org/2000/svg" xmlns:xlink="http://www.w3.org/1999/xlink" version="1.1" x="0px" y="0px" viewBox="0 0 100 100" enable-background="new 0 0 100 100" xml:space="preserve"><g><path d="M98.409,64.811c0,2.821-1.974,5.108-4.408,5.108h-2.612c-2.437,0-4.408-2.287-4.408-5.108V35.104   c0-2.822,1.973-5.108,4.408-5.108h2.612c2.435,0,4.408,2.287,4.408,5.108V64.811z" fill="#fff"></path><path d="M1.566,64.811c0,2.821,1.973,5.108,4.407,5.108h2.612c2.436,0,4.409-2.287,4.409-5.108V35.104   c0-2.822-1.973-5.108-4.409-5.108H5.974c-2.435,0-4.407,2.287-4.407,5.108L1.566,64.811L1.566,64.811z" fill="#fff"></path><g><path d="M79.932,24.793h-3.049c-2.841,0-5.142,2.667-5.142,5.96v11.93H28.234v-11.93c0-3.293-2.302-5.96-5.143-5.96h-3.049    c-2.84,0-5.143,2.667-5.143,5.96v38.409c0,3.292,2.303,5.959,5.143,5.959h3.049c2.84,0,5.143-2.667,5.143-5.959v-11.93h43.507    v11.93c0,3.292,2.301,5.959,5.142,5.959h3.049c2.84,0,5.145-2.667,5.145-5.959V30.753C85.075,27.46,82.771,24.793,79.932,24.793z     M72.193,52.354H71.52H28.444c0-2.03,0-4.673,0-6.257c2.904,0,37.152,0,43.076,0c0.297,0,0.526,0,0.674,0    C72.193,47.679,72.193,50.322,72.193,52.354z" fill="#fff"></path></g></g></svg></g></g></svg>