<svg xmlns="http://www.w3.org/2000/svg" xmlns:xlink="http://www.w3.org/1999/xlink" version="1.1" id="CombinedIcon" x="0px" y="0px" width="32px" height="32px" viewBox="5.0 -10.0 100.0 135.0" enable-background="new 0 0 100 100" xml:space="preserve"><g id='gmarkerbase' transform='scale(3.95)'><svg xmlns:dc="http://purl.org/dc/elements/1.1/" xmlns:cc="http://creativecommons.org/ns#" xmlns:rdf="http://www.w3.org/1999/02/22-rdf-syntax-ns#" xmlns:svg="http://www.w3.org/2000/svg" xmlns="http://www.w3.org/2000/svg" xmlns:sodipodi="http://sodipodi.sourceforge.net/DTD/sodipodi-0.dtd" xmlns:inkscape="http://www.inkscape.org/namespaces/inkscape" id="markerbase" x="0px" y="0px" width="32px" height="32px" viewBox="0 0 32 32" enable-background="new 0 0 32 32" xml:space="preserve" version="0.48.4 r9939" docname="community.svg" class="injected-svg" style=""><metadata id="metadata19"><rdf:RDF><cc:Work about=""><dc:format>image/svg+xml</dc:format><dc:type resource="http://purl.org/dc/dcmitype/StillImage"></dc:type><dc:title></dc:title></cc:Work></rdf:RDF></metadata><defs id="defs17"></defs><sodipodi:namedview pagecolor="#ffffff" bordercolor="#666666" borderopacity="1" objecttolerance="10" gridtolerance="10" guidetolerance="10" pageopacity="0" pageshadow="2" window-width="640" window-height="480" id="namedview15" showgrid="false" zoom="7.375" cx="16" cy="16" window-x="488" window-y="115" window-maximized="0" current-layer="Layer_1"></sodipodi:namedview>
<path fill="#ffae00" d="M16,1c8.284,0,15,6.716,15,15s-6.716,15-15,15S1,24.284,1,16S7.716,1,16,1z" id="path3"></path>

</svg></g><g id='gmarkericon' transform='translate(18,4)'><g transform='scale(0.9)'><svg xmlns="http://www.w3.org/2000/svg" xmlns:xlink="http://www.w3.org/1999/xlink" version="1.1" x="0px" y="0px" viewBox="0 0 612 555.5" enable-background="new 0 0 612 555.5" xml:space="preserve"><path fill-rule="evenodd" clip-rule="evenodd" d="M100.913,150.871c-11.298,10.872-8.815,5.321-13.551,17.827  c-14.27-10.645-60.483-37.776-66.716-79.788C13.901,43.436,69.385,6.716,84.765,21.126c22.413,20.999-48.616,1.967-42.891,66.42  C44.56,117.774,76.413,133.317,100.913,150.871z" fill="#fff"></path><path fill-rule="evenodd" clip-rule="evenodd" d="M599.683,520.317c-10.725,11.429-58.707-0.148-82.403-5.143  c-76.034-16.016-173.556-47.354-238.898-88.651c-58.664-37.077-88.375-49.984-146.79-97.361  c-16.023-12.998-42.217-57.683-45.497-71.218c-3.76-15.517-5.656-18.071-1.77-38.184c3.247-16.813-1.248-42.237,8.363-54.949  c21.469-28.391,43.429-28.325,66.821-23.017c2.914-6.862,13.088-16.439,29.236-13.853c51.347,8.229,90.09,60.985,121.437,101.305  c30.576,39.328,59.946,76.325,91.804,103.93c35.88,31.088,66.806,71.057,100.605,96.865  C539.077,457.905,618.656,500.099,599.683,520.317z M156.124,308.491c56.203,49.288,222.895,146.512,301.11,159.224  c-71.881-27.858-229.193-123.593-278.498-175.859c-15.47-16.398-37.517-57.159-60.494-40.532  C106.448,259.857,140.132,294.469,156.124,308.491z" fill="#fff"></path></svg></g></g></svg>