<svg version="1" xmlns="http://www.w3.org/2000/svg" width="300" height="300" viewBox="0 0 300 300" style="background-color:#FFF"><path fill="#C8F0FA" d="M75 95c-.7 0-1.4-.4-1.7-1l-10-16.5c-1.7-2.4-2.6-5.3-2.6-8.3 0-7.7 6-14 13.8-14.3 4-.1 7.8 1.4 10.6 4.2 2.7 2.7 4.2 6.3 4.2 10.1 0 2.9-.9 5.7-2.5 8.1L76.8 94c-.4.6-1 1-1.8 1zm0-38.6h-.5c-7 .3-12.5 5.9-12.5 12.9 0 2.7.8 5.3 2.4 7.5l10 16.5c.2.3.5.3.5.3.1 0 .4 0 .5-.3l9.9-16.6c1.5-2.1 2.3-4.7 2.3-7.3 0-3.5-1.3-6.7-3.8-9.1-2.2-2.6-5.4-3.9-8.8-3.9zm0 18.5c-3.2 0-5.8-2.6-5.8-5.8 0-3.2 2.6-5.8 5.8-5.8 3.2 0 5.8 2.6 5.8 5.8 0 3.2-2.6 5.8-5.8 5.8zm0-10.3c-2.5 0-4.5 2-4.5 4.5s2 4.5 4.5 4.5 4.5-2 4.5-4.5c-.1-2.5-2.1-4.5-4.5-4.5z"/><path fill="#DEF6FC" d="M228.7 233.1c-2.5 3.8-3.5 4.8-4.4 4.8-.6 0-.9-.5-1-1.3 0-.4-.1-1.2-.1-2.3 0-2.8.5-11.9.6-13.3-5 10.4-6 17.1-12.2 17.1-4.1 0-6.7-3.5-6.7-6.7 0-5.1 5.4-7.7 8.6-6.2 1.6.7 2.1 2.5 1.2 3.9-.5.9-1.5 1.4-2.6 1.1-1.3-.3-1.3-1.1-2.2-1.6-1.3-.7-2.9.4-3.1 2.8-.2 3 1.9 5.2 4.7 5.2 4.5 0 5.6-3.9 8.1-9.4 2.6-5.7 4.7-11.2 5.1-12.4.4-1.2 1.1-1.6 2.3-1.9 1.1-.3 2.9-1.1 3.3-1.1.5 0 .7.1.7.6s-.7 2.6-1.9 8.3c-1.1 5.2-1.2 11-1.2 11.3.2-.3 7.6-11.2 8.7-14 1.1-2.8 1.6-4.6 3.1-5.1s3.6-1 4.2-1c.5 0 .7.2.7.7 0 .5-.9 1.6-1.9 4.4-.9 2.4-4.7 13.4-4.7 17.7 0 1.1.5 1.7 1.4 1.7 1.5 0 4.8-3.9 5-4.1.3-.3.6 0 .4.3-.1.2-3.8 5.6-7.7 5.6-2.9 0-3.8-1.6-3.8-3.6 0-1.7 1.4-7.7 2.5-12.3-.1.2-4.6 7.1-7.1 10.8z"/><path fill="#C8F0FA" d="M225 95c-11 0-20-9-20-20s9-20 20-20 20 9 20 20-9 20-20 20zm0-38.6c-10.3 0-18.6 8.4-18.6 18.6s8.4 18.6 18.6 18.6 18.6-8.4 18.6-18.6-8.3-18.6-18.6-18.6zm-.2 30.1c-1 0-1.8-.6-2-1.5l-1.5-4.9c-.1-.2-.3-.5-.5-.5l-4.9-1.5c-.9-.3-1.5-1-1.5-1.9 0-.9.4-1.7 1.2-2.1l16-7.6c1-.5 2.2-.1 2.7.8.4.6.5 1.4.1 2l-7.6 16c-.4.7-1.2 1.2-2 1.2zm7.6-18.9c-.1 0-.2 0-.4.1l-15.9 7.5c-.5.2-.5.6-.5.8 0 .1.1.5.5.7l4.9 1.5c.7.2 1.2.7 1.4 1.4l1.5 4.9c.1.4.5.5.8.5.1 0 .5 0 .7-.5l7.6-16c.2-.4 0-.6 0-.7-.1 0-.4-.2-.6-.2zM79.2 205.5c-1.4-.3-2.8-.4-4.2-.4-11 0-20 9-20 20 0 6.6 3.2 12.4 8.1 16.1l.1.1s.1 0 .1.1c3.3 2.4 7.3 3.8 11.7 3.8 11 0 20-9 20-20 0-9.7-6.8-17.8-15.8-19.7zM93.7 222c-1.1-.6-2.5-.9-3.5-.7-.7.2-1.1.5-1.3 1.1-.2.5-.8.9-1.3 1.3-.8.5-1.7 1.1-1.3 2.2.4 1-1 5.7-2 8.6-.6 1.8-.9 2.4-1.8 2.6-1.6.4-2 0-2.5-.5-.9-.9-1.7-4-1.6-5.9.1-.9.1-1.6.1-2-.1-.9-1.1-1-2.4-1.3-1.7-.3-4-.7-4.7-2.7-.5-1.6-.2-4.3 1.3-5.5.3-.3 1.5-.5 2.4-.7.7-.1 2.3.4 3.7.8 2.2.6 4.2 1.2 5.2.8.9-.3 1.5-2.8 1.7-3.6.2-1 .1-1.6-.3-2-.5-.4-1.4-.2-2.2.1-.4.1-1.1.3-1.3.3-.2-.8-.8-1.5-1.7-1.8-.9-.3-1.7-.1-2.3.5-1 1-2 1.2-2.7 1.2-.9 0-1.4-.3-1.5-.4-.2-.4-.4-2.2-.3-2.6.2-.1.7-.1 1.1-.1 1.8-.2 3-.3 3.2-1 .1-.2.1-.6-.4-1s-.5-.8-.5-.9c.1-.8 1.4-1.7 2.2-2.2 7.6 1.7 13.4 7.7 14.7 15.4zm-37.6 4.6c.3-.2 1-.6 1.7-.5.4.1.8.3 1 .7 1.3 1.7 2.9 3.6 5.3 3.2.5-.1 1.3.1 1.8.3-.2 2-1 6.4-2.2 7.9-.4.5-.7 1-.8 1.4-3.8-3.2-6.3-7.8-6.8-13zM75 244c-4.1 0-8-1.4-11.1-3.6-.1-.2-.1-.7.7-1.5 1.8-2.2 2.5-8.5 2.5-8.8 0-.2-.1-.4-.2-.5-.6-.5-1.9-.9-2.9-.7-1.6.3-2.8-.8-4.2-2.7-.5-.6-1-1-1.7-1.1-.7-.1-1.4.1-1.9.4v-.3c0-10.4 8.5-18.9 18.9-18.9.9 0 1.7.1 2.5.2-.8.5-1.6 1.4-1.7 2.3-.1.4.1 1.1.7 1.7-.5.1-1.5.2-2 .3-.7.1-1.1.1-1.4.2-.2.1-.4.2-.6.6-.4 1 .1 3 .3 3.5.3.5 1.1.8 1.8.9.9.1 2.6.1 4.1-1.5.3-.3.8-.3 1.2-.2.5.2.9.5 1 1 .1.4.3.7.5.8.5.3 1.3.1 2.1-.2.4-.1.9-.3 1.1-.3.3.6-.6 3.3-1.1 3.8-.7.2-2.8-.4-4.5-.9-1.8-.5-3.3-.9-4.2-.8-.4.1-2.3.4-3 1-1.8 1.6-2.2 4.8-1.6 6.7.9 2.6 3.7 3 5.5 3.4.5.1 1.3.2 1.5.4 0 .3-.1 1-.1 1.7-.2 2.3.7 5.5 1.9 6.7.7.7.7 1 2 1 .5 0 1-.1 1.5-.2 1.9-.4 2-1.6 2.6-3.3 1-2.9 2.5-7.9 2-9.3-.1-.2.2-.4.9-.9s1.5-1 1.7-1.8c0-.1.1-.3.5-.4 1-.2 2.7.3 3.5 1 .1.5.1 1.1.1 1.6 0 10.2-8.5 18.7-18.9 18.7z"/></svg>