<svg xmlns="http://www.w3.org/2000/svg" xmlns:xlink="http://www.w3.org/1999/xlink" version="1.1" id="CombinedIcon" x="0px" y="0px" width="32px" height="32px" viewBox="5.0 -10.0 100.0 135.0" enable-background="new 0 0 100 100" xml:space="preserve"><g id='gmarkerbase' transform='scale(3.95)'><svg xmlns:dc="http://purl.org/dc/elements/1.1/" xmlns:cc="http://creativecommons.org/ns#" xmlns:rdf="http://www.w3.org/1999/02/22-rdf-syntax-ns#" xmlns:svg="http://www.w3.org/2000/svg" xmlns="http://www.w3.org/2000/svg" xmlns:sodipodi="http://sodipodi.sourceforge.net/DTD/sodipodi-0.dtd" xmlns:inkscape="http://www.inkscape.org/namespaces/inkscape" id="markerbase" x="0px" y="0px" width="32px" height="32px" viewBox="0 0 32 32" enable-background="new 0 0 32 32" xml:space="preserve" version="0.48.4 r9939" docname="community.svg" class="injected-svg" style=""><metadata id="metadata19"><rdf:RDF><cc:Work about=""><dc:format>image/svg+xml</dc:format><dc:type resource="http://purl.org/dc/dcmitype/StillImage"></dc:type><dc:title></dc:title></cc:Work></rdf:RDF></metadata><defs id="defs17"></defs><sodipodi:namedview pagecolor="#ffffff" bordercolor="#666666" borderopacity="1" objecttolerance="10" gridtolerance="10" guidetolerance="10" pageopacity="0" pageshadow="2" window-width="640" window-height="480" id="namedview15" showgrid="false" zoom="7.375" cx="16" cy="16" window-x="488" window-y="115" window-maximized="0" current-layer="Layer_1"></sodipodi:namedview>
<path fill="#00cc00" d="M16,1c8.284,0,15,6.716,15,15s-6.716,15-15,15S1,24.284,1,16S7.716,1,16,1z" id="path3"></path>

</svg></g><g id='gmarkericon' transform='translate(18,4)'><g transform='scale(0.9)'><svg xmlns="http://www.w3.org/2000/svg" xmlns:xlink="http://www.w3.org/1999/xlink" version="1.1" x="0px" y="0px" viewBox="0 0 100 100" enable-background="new 0 0 100 100" xml:space="preserve"><g display="none"><rect x="-192" display="inline" width="185" height="99" fill="#fff"></rect><rect y="-36" display="inline" width="100" height="30" fill="#fff"></rect><text transform="matrix(1 0 0 1 66 -19.5)" display="inline" fill="#000000" font-family="'Helvetica'" font-size="2.4">http://thenounproject.com</text><text transform="matrix(1 0 0 1 7.166 -24.5)" display="inline"><tspan x="0" y="0" fill="#000000" font-family="'Helvetica-Bold'" font-size="6.1578">The Noun Project</tspan><tspan x="1.12" y="4.8" fill="#000000" font-family="'Helvetica-Bold'" font-size="4">Icon Template</tspan></text><text transform="matrix(1 0 0 1 -178.5 10.5)" display="inline" fill="#000000" font-family="'Helvetica-Bold'" font-size="6.1578">Reminders</text><line display="inline" fill="#fff" stroke="#FFFFFF" stroke-miterlimit="10" x1="8" y1="-14.5" x2="18" y2="-14.5"></line><line display="inline" fill="#fff" stroke="#FFFFFF" stroke-miterlimit="10" x1="-179" y1="16.5" x2="-162" y2="16.5"></line><g display="inline"><g><g><rect x="-170.802" y="31.318" fill="#fff" width="8.721" height="8.642"></rect><path fill="#fff" d="M-164.455,42.312h4.747v-4.703h-4.747V42.312z M-159.266,42.749h-5.63V37.17h5.63V42.749      L-159.266,42.749z M-166.221,44.062h8.279v-8.203h-8.279V44.062L-166.221,44.062z M-157.5,44.5h-9.163v-9.079h9.163V44.5      L-157.5,44.5z"></path><polygon fill="#fff" points="-166.149,44.133 -166.292,43.991 -158.013,35.787 -157.871,35.929     "></polygon></g></g></g><rect x="-179" y="58" display="inline" fill="#fff" width="35" height="32.5"></rect><text transform="matrix(1 0 0 1 -179 60.1299)" display="inline"><tspan x="0" y="0" fill="#000000" font-family="'Helvetica-Bold'" font-size="3">Strokes</tspan><tspan x="0" y="5" fill="#000000" font-family="'Helvetica'" font-size="2.4">Try to keep strokes at 4px</tspan><tspan x="0" y="10" fill="#000000" font-family="'Helvetica'" font-size="2.4">Minimum stroke weight is 2px</tspan><tspan x="0" y="14.5" fill="#000000" font-family="'Helvetica'" font-size="2.4">For thicker strokes use even </tspan><tspan x="0" y="17.5" fill="#000000" font-family="'Helvetica'" font-size="2.4">numbers: 6px, 8px etc.</tspan><tspan x="0" y="22" fill="#000000" font-family="'Helvetica-Bold'" font-size="2.4">Remember to expand strokes </tspan><tspan x="0" y="25" fill="#000000" font-family="'Helvetica-Bold'" font-size="2.4">before saving as an SVG </tspan></text><rect x="-136.5" y="58" display="inline" fill="#fff" width="35" height="32.5"></rect><text transform="matrix(1 0 0 1 -136.5 60.1299)" display="inline"><tspan x="0" y="0" fill="#000000" font-family="'Helvetica-Bold'" font-size="3">Size</tspan><tspan x="0" y="5" fill="#000000" font-family="'Helvetica'" font-size="2.4">Cannot be wider or taller than </tspan><tspan x="0" y="8.5" fill="#000000" font-family="'Helvetica'" font-size="2.4">100px (artboard size)</tspan><tspan x="0" y="13.5" fill="#000000" font-family="'Helvetica'" font-size="2.4">Scale your icon to fill as much of </tspan><tspan x="0" y="16.5" fill="#000000" font-family="'Helvetica'" font-size="2.4">the artboard as possible</tspan></text><rect x="-94" y="58" display="inline" fill="#fff" width="35" height="32.5"></rect><text transform="matrix(1 0 0 1 -94 60.1299)" display="inline"><tspan x="0" y="0" fill="#000000" font-family="'Helvetica-Bold'" font-size="3">Ungroup</tspan><tspan x="0" y="5" fill="#000000" font-family="'Helvetica'" font-size="2.4">If your design has more than one </tspan><tspan x="0" y="8" fill="#000000" font-family="'Helvetica'" font-size="2.4">shape, make sure to ungroup</tspan></text><rect x="-50" y="58" display="inline" fill="#fff" width="35" height="32.5"></rect><text transform="matrix(1 0 0 1 -50 60.1299)" display="inline"><tspan x="0" y="0" fill="#000000" font-family="'Helvetica-Bold'" font-size="3">Save as</tspan><tspan x="0" y="5" fill="#000000" font-family="'Helvetica'" font-size="2.4">Save as .SVG and make sure “Use </tspan><tspan x="0" y="8" fill="#000000" font-family="'Helvetica'" font-size="2.4">Artboards” is checked</tspan></text><text transform="matrix(1.0074 0 0 1 -125.542 30.5933)" display="inline" fill="#000000" font-family="'Helvetica'" font-size="2.5731">100px</text><text transform="matrix(1.0074 0 0 1 -41 39)" display="inline" fill="#000000" font-family="'Helvetica-Bold'" font-size="5.1462">.SVG</text><rect x="-126.514" y="34.815" display="inline" fill="#fff" width="10.261" height="10.185"></rect><rect x="-126.477" y="31.766" display="inline" fill="#fff" width="0.522" height="2.337"></rect><rect x="-116.813" y="31.766" display="inline" fill="#fff" width="0.523" height="2.337"></rect><rect x="-127" y="32.337" display="inline" fill="#fff" width="11.233" height="0.572"></rect><g display="inline"><rect x="-83.805" y="33.844" fill="#fff" width="10.305" height="10.156"></rect><rect x="-76.809" y="28.707" fill="#fff" width="3.308" height="3.261"></rect></g><rect x="-178.5" y="22.5" display="inline" fill="#fff" stroke="#FFFFFF" stroke-miterlimit="10" width="30" height="30"></rect><rect x="-136.5" y="22.5" display="inline" fill="#fff" stroke="#FFFFFF" stroke-miterlimit="10" width="30" height="30"></rect><rect x="-93.5" y="22.5" display="inline" fill="#fff" stroke="#FFFFFF" stroke-miterlimit="10" width="30" height="30"></rect><rect x="-49.5" y="22.5" display="inline" fill="#fff" stroke="#FFFFFF" stroke-miterlimit="10" width="30" height="30"></rect></g><g display="none"><g display="inline"><path fill-rule="evenodd" clip-rule="evenodd" d="M33.295,99.717c-0.458,0-0.838,0-1.218,0c-1.245,0-2.49-0.008-3.735,0.008    c-0.285,0.004-0.462-0.092-0.631-0.307c-1.08-1.383-1.846-2.936-2.482-4.557c-1.256-3.199-1.923-6.539-2.292-9.941    c-0.342-3.148-0.444-6.307-0.284-9.469c0.27-5.303,1.321-10.416,3.745-15.189c2.309-4.547,5.643-8.201,9.748-11.183    c3.448-2.504,7.211-4.444,11.113-6.119c3.419-1.467,6.875-2.852,10.301-4.306c2.724-1.156,5.397-2.418,7.819-4.147    c1.795-1.28,3.348-2.786,4.4-4.753c0.828-1.55,1.226-3.211,1.293-4.959c0.004-0.113,0.012-0.226,0.024-0.446    c0.108,0.205,0.173,0.313,0.226,0.427c1.388,2.974,2.151,6.114,2.402,9.375c0.62,8.092-1.262,15.667-4.873,22.852    c-2.961,5.891-6.971,10.953-12.18,15.029c-4.902,3.834-10.412,6.322-16.566,7.33c-3.931,0.645-7.868,0.605-11.805,0.025    c-0.244-0.037-0.281-0.148-0.271-0.357c0.07-1.582,0.521-3.061,1.21-4.475c1.205-2.475,2.921-4.572,4.837-6.518    c3.422-3.473,7.311-6.359,11.398-8.988c0.967-0.619,1.957-1.203,2.938-1.803c0.108-0.066,0.215-0.137,0.289-0.266    c-0.809,0.402-1.623,0.793-2.426,1.207c-4.48,2.303-8.804,4.857-12.771,7.98c-2.199,1.73-4.251,3.615-5.904,5.893    c-1.029,1.418-1.885,2.934-2.166,4.684c-0.143,0.891-0.148,1.813-0.127,2.719c0.085,3.805,0.646,7.533,1.943,11.127    c1.072,2.971,2.569,5.693,4.794,7.971C32.42,98.943,32.833,99.291,33.295,99.717z" fill="#fff"></path></g><path display="inline" d="M62.636,69.821c-1.331,1.348-2.734,2.617-4.229,3.786c-5.223,4.085-11.102,6.685-17.475,7.729   c-0.984,0.161-1.979,0.283-2.986,0.365c0.192,8.473,0.339,14.906,0.339,14.906s-0.201,1.86,1.203,2.462S48.307,100,49.46,100h1.782   c1.153,0,8.177-0.329,9.581-0.931c1.403-0.602,1.203-2.435,1.203-2.435S62.327,83.343,62.636,69.821z" fill="#fff"></path><path display="inline" d="M52.604,38.764c1.562-0.646,3.122-1.291,4.677-1.951c1.744-0.741,3.557-1.567,5.304-2.578   c-0.105-0.372-0.224-0.771-0.358-1.213c-1.104-3.61-5.967-5.966-6.567-6.869c-0.026-0.039-0.05-0.098-0.074-0.153l0,0   c-0.029-0.065-0.057-0.147-0.085-0.233c-0.009-0.03-0.019-0.057-0.027-0.09c-0.011-0.036-0.021-0.078-0.031-0.117   c-0.421-1.695-0.535-5.824-0.535-5.824S54.604,6.148,54.604,5.848S55,5.195,55,5.195V2.839c0,0-0.297-0.451-0.297-0.702   c0-0.207-0.087-1.022-0.313-1.444c-0.022-0.089-0.055-0.167-0.116-0.21c-0.351-0.251-2.515-0.451-2.515-0.451S51.336,0,50.279,0   c-0.037,0-0.063,0-0.098,0s-0.061,0-0.098,0c-1.057,0-1.468,0.031-1.468,0.031s-0.204,0.02-0.484,0.052   c-0.673,0.074-1.824,0.224-2.07,0.399c-0.351,0.251-0.571,1.404-0.571,1.654c0,0.251-0.49,0.702-0.49,0.702v2.356   c0,0,0.59,0.352,0.59,0.652S45.48,19.736,45.48,19.736s-0.14,5.027-0.677,6.26c-0.025,0.057-0.05,0.117-0.077,0.157   c-0.602,0.903-5.502,3.259-6.605,6.869c-1.103,3.609-1.171,4.513-1.072,8.674c0.015,0.617,0.035,2.267,0.089,4.617   c2.814-1.863,5.985-3.539,9.835-5.191C48.843,40.319,50.724,39.542,52.604,38.764z" fill="#fff"></path></g><g display="none"><g display="inline"><path d="M38.646,53.388c0.056-0.005,0.11-0.021,0.167-0.021c0.46,0,0.945,0.143,1.322,0.408l0.649,0.456    c0.525,0.368,1.051,0.736,1.572,1.114c3.482,2.522,6.333,4.97,8.714,7.482c2.262,2.387,3.987,4.715,5.274,7.117    c1.14,2.129,1.869,4.214,2.233,6.375c0.043,0.259,0.041,0.508,0.016,0.749c0.31-0.09,0.608-0.187,0.933-0.269    c0.413-0.104,0.837-0.189,1.261-0.277c0.306-13.483,0.839-36.914,0.901-39.54c0.091-3.713,0.045-4.519-0.939-7.739    c-0.983-3.221-5.324-5.323-5.858-6.129c-0.537-0.806-0.673-5.726-0.673-5.726S53.798,5.265,53.798,4.997S54,4.415,54,4.415V2.312    c0,0-0.115-0.402-0.115-0.626s-0.033-1.252-0.348-1.477c-0.313-0.223-2.208-0.402-2.208-0.402s-0.492-0.028-1.434-0.028    c-0.942,0-1.3,0.028-1.3,0.028s-1.92,0.179-2.234,0.402c-0.312,0.224-0.271,1.253-0.271,1.477S46,2.312,46,2.312v2.103    c0,0,0.184,0.313,0.184,0.582s-0.379,12.392-0.379,12.392s-0.167,4.919-0.703,5.726s-4.893,2.908-5.877,6.129    c-0.984,3.221-1.037,4.026-0.948,7.739C38.309,38.335,38.458,45.203,38.646,53.388z" fill="#fff"></path><path d="M44.11,88.652c-0.025-0.065-0.051-0.127-0.076-0.192" fill="#fff"></path></g><g display="inline"><path fill-rule="evenodd" clip-rule="evenodd" d="M38.849,55.598c0.733,0.517,1.47,1.025,2.195,1.552    c3,2.173,5.852,4.518,8.406,7.212c1.91,2.014,3.612,4.181,4.928,6.636c0.959,1.793,1.662,3.678,2,5.692    c0.033,0.202-0.009,0.282-0.203,0.353c-1.736,0.639-3.364,1.474-4.804,2.647c-2.372,1.938-3.729,4.436-4.126,7.464    c-0.124,0.941-0.15,1.886-0.104,2.832c0.002,0.058,0,0.117-0.03,0.186c-0.029-0.064-0.059-0.128-0.086-0.191    c-1.373-3.331-2.473-6.756-3.443-10.221c-1.211-4.324-2.219-8.694-2.99-13.121c-0.026-0.144-0.05-0.286-0.096-0.428    c-0.291,4.833-0.059,9.653,0.366,14.464c0.426,4.811,1.059,9.589,2.169,14.335c-0.483-0.159-0.933-0.299-1.377-0.456    c-2.181-0.771-4.25-1.767-6.152-3.091c-2.199-1.531-4.034-3.399-5.308-5.781c-0.973-1.818-1.509-3.765-1.663-5.817    c-0.204-2.718,0.244-5.352,1.046-7.934c0.839-2.712,2.042-5.262,3.437-7.727c1.677-2.96,3.612-5.747,5.69-8.439    c0.041-0.052,0.073-0.11,0.11-0.166C38.824,55.598,38.836,55.598,38.849,55.598z" fill="#fff"></path><path fill-rule="evenodd" clip-rule="evenodd" d="M58.05,99.822c-0.36-0.035-0.719-0.071-1.077-0.111    c-0.961-0.106-1.903-0.301-2.835-0.557c-0.029-0.007-0.055-0.023-0.099-0.04c2.336-4.539,5.297-8.589,9.04-12.062    c-4.637,2.564-8.736,5.81-12.327,9.765c-0.162-0.524-0.322-1.005-0.457-1.494c-0.482-1.744-0.743-3.519-0.656-5.335    c0.184-3.805,1.855-6.757,5.074-8.818c1.651-1.058,3.467-1.729,5.357-2.207c2.368-0.596,4.781-0.872,7.218-0.951    c1.313-0.04,2.626-0.014,3.939-0.017c0.066,0,0.133,0.007,0.211,0.011c0.005,0.116,0.012,0.219,0.016,0.323    c0.051,2.199,0.016,4.396-0.216,6.587c-0.277,2.637-0.782,5.221-1.841,7.67c-0.737,1.711-1.718,3.255-3.106,4.519    c-1.639,1.491-3.579,2.319-5.763,2.604c-0.334,0.046-0.671,0.078-1.005,0.113C59.032,99.822,58.541,99.822,58.05,99.822z" fill="#fff"></path></g></g><g display="none"><path display="inline" fill-rule="evenodd" clip-rule="evenodd" d="M83.327,44.242c0,5.115-4.145,9.268-9.267,9.268   c-5.117,0-9.27-4.153-9.27-9.268s4.152-9.268,9.27-9.268C79.183,34.974,83.327,39.126,83.327,44.242z" fill="#fff"></path><path display="inline" fill-rule="evenodd" clip-rule="evenodd" d="M64.965,53.13c0,4.601-3.729,8.327-8.327,8.327   c-4.602,0-8.331-3.727-8.331-8.327c0-4.598,3.729-8.332,8.331-8.332C61.235,44.798,64.965,48.532,64.965,53.13z" fill="#fff"></path><circle display="inline" fill-rule="evenodd" clip-rule="evenodd" cx="38.094" cy="64.597" r="8.337" fill="#fff"></circle><path display="inline" fill-rule="evenodd" clip-rule="evenodd" d="M61.559,71.201c0,4.177-3.387,7.563-7.567,7.563   c-4.174,0-7.561-3.386-7.561-7.563c0-4.179,3.386-7.564,7.561-7.564C58.172,63.637,61.559,67.022,61.559,71.201z" fill="#fff"></path><path display="inline" fill-rule="evenodd" clip-rule="evenodd" d="M78.988,64.597c0,4.812-3.897,8.714-8.712,8.714   c-4.816,0-8.718-3.902-8.718-8.714c0-4.815,3.901-8.717,8.718-8.717C75.091,55.88,78.988,59.781,78.988,64.597z" fill="#fff"></path><path display="inline" fill-rule="evenodd" clip-rule="evenodd" d="M49.063,82.473c0,4.284-3.475,7.758-7.761,7.758   c-4.285,0-7.762-3.474-7.762-7.758c0-4.288,3.477-7.762,7.762-7.762C45.589,74.711,49.063,78.185,49.063,82.473z" fill="#fff"></path><circle display="inline" fill-rule="evenodd" clip-rule="evenodd" cx="64.965" cy="80.391" r="5.678" fill="#fff"></circle><circle display="inline" fill-rule="evenodd" clip-rule="evenodd" cx="55.507" cy="92.126" r="7.572" fill="#fff"></circle><path display="inline" fill-rule="evenodd" clip-rule="evenodd" d="M70.074,25.478c-1.19-0.439-2.313-1.066-3.238-1.892   c-0.453-0.407-0.862-0.861-1.2-1.354c1.099-0.394,2.092-0.951,3.018-1.569l0.019-0.012c0.047-0.031,0.088-0.07,0.125-0.115   c0.245-0.303,0.465-0.65,0.604-1.05c0.142-0.397,0.188-0.847,0.122-1.272c-0.136-0.861-0.65-1.553-1.26-2.016   c-0.615-0.463-1.349-0.769-2.167-0.778c-0.405-0.001-0.839,0.088-1.223,0.307c-0.385,0.215-0.689,0.562-0.874,0.929l-0.014,0.027   c-0.012,0.023-0.021,0.047-0.028,0.073c-0.179,0.664-0.286,1.354-0.286,2.05c-0.002,0.695,0.106,1.395,0.328,2.054   c0.033,0.101,0.086,0.192,0.124,0.29c-0.792,0.125-1.567,0.066-2.221-0.262c-0.859-0.428-1.491-1.301-1.886-2.303   c-0.395-1.008-0.597-2.128-0.664-3.257c-0.055-0.913,0.008-1.834,0.131-2.743c0.921,0.192,1.858,0.321,2.821,0.343   c0.861,0.001,1.751-0.035,2.661-0.462c0.441-0.21,0.933-0.622,1.104-1.224c0.173-0.593,0.039-1.149-0.133-1.599   c-0.007-0.018-0.017-0.038-0.026-0.055l-0.01-0.017c-0.308-0.541-0.634-1.081-1.041-1.584c-0.41-0.5-0.882-0.992-1.546-1.342   c-0.633-0.366-1.611-0.463-2.327-0.07c-0.723,0.359-1.187,0.929-1.551,1.487c-0.671,1.067-1.022,2.215-1.265,3.367   c-0.209-0.05-0.42-0.095-0.627-0.15c-0.506-0.134-1.008-0.29-1.507-0.457c0.106-0.3,0.225-0.598,0.362-0.891   c2.041-2.534,3.218-5.532,2.833-9.093c-0.12-1.122-3.058-0.444-2.924,0.784c0.224,2.07-0.163,3.919-0.974,5.579   c-0.618,0.763-1.124,1.55-1.522,2.357c-0.071,0.087-0.146,0.173-0.22,0.26C53.398,9.721,53.2,9.63,53.009,9.526   c-1.415-0.787-2.775-1.762-3.716-3.127c0.791,1.464,2.104,2.593,3.5,3.492c0.159,0.102,0.325,0.191,0.487,0.288   c-3.236,3.563-8.455,6.023-12.89,7.785c-0.843-0.272-1.741-0.422-2.674-0.422c-4.814,0-8.72,3.902-8.72,8.717   c0,0.228,0.017,0.452,0.034,0.676c-0.522-0.127-1.064-0.203-1.625-0.203c-3.766,0-6.818,3.049-6.818,6.812   c0,3.767,3.052,6.816,6.818,6.816c3.53,0,6.438-2.688,6.781-6.134c1.08,0.479,2.272,0.75,3.529,0.75   c4.811,0,8.714-3.902,8.714-8.716c0-3.041-1.559-5.714-3.917-7.274c3.399-1.408,7.093-3.197,10.153-5.508   c-0.432,3.622,0.656,7.444,2.346,11.072c-3.469,1.279-5.948,4.604-5.948,8.516c0,5.019,4.069,9.087,9.086,9.087   c5.021,0,9.089-4.068,9.089-9.087c0-5.017-4.067-9.084-9.089-9.084c-0.047,0-0.093,0.006-0.14,0.007   c-2.012-4.134-3.291-8.587-2.178-12.528c0.49,0.204,0.987,0.396,1.494,0.563c0.232,0.073,0.469,0.136,0.703,0.203   c-0.16,1.053-0.225,2.116-0.171,3.184c0.066,1.253,0.27,2.522,0.764,3.738c0.483,1.196,1.316,2.417,2.627,3.063   c1.161,0.566,2.458,0.553,3.589,0.277c0.437,0.627,0.965,1.183,1.563,1.627c1.074,0.812,2.299,1.364,3.559,1.718   c1.262,0.358,2.575,0.497,3.865,0.427C72.535,26.183,71.269,25.909,70.074,25.478z M60.639,8.815   c0.268-0.443,0.606-0.829,0.96-1.009c0.349-0.19,0.701-0.172,1.111,0.026c0.406,0.194,0.806,0.562,1.157,0.977   c0.342,0.411,0.658,0.864,0.956,1.335c0.126,0.293,0.181,0.575,0.129,0.777c-0.044,0.209-0.215,0.404-0.5,0.562   c-0.575,0.314-1.38,0.423-2.154,0.447c-0.89,0.02-1.791-0.065-2.689-0.211C59.815,10.683,60.139,9.663,60.639,8.815z M64.99,20.942   c-0.041-0.118-0.098-0.23-0.13-0.352c-0.322-1.125-0.232-2.328,0.125-3.454c0.235-0.39,0.615-0.563,1.089-0.543   c0.484,0.023,1.008,0.253,1.407,0.589c0.4,0.337,0.693,0.779,0.744,1.214c0.056,0.406-0.106,0.812-0.406,1.189   C66.914,20.155,65.964,20.644,64.99,20.942z" fill="#fff"></path><path display="inline" fill-rule="evenodd" clip-rule="evenodd" d="M39.789,35.444c-4.538,0-8.269,3.433-8.743,7.845   c-1.099-0.542-2.331-0.856-3.639-0.856c-4.556,0-8.244,3.688-8.244,8.238c0,4.549,3.688,8.237,8.244,8.237   c4.116,0,7.517-3.023,8.129-6.968c1.261,0.698,2.71,1.099,4.253,1.099c4.858,0,8.799-3.941,8.799-8.797   C48.588,39.381,44.647,35.444,39.789,35.444z" fill="#fff"></path></g><g display="none"><path display="inline" fill-rule="evenodd" clip-rule="evenodd" d="M62,93.381c0,0.127,0,0.255,0,0.383   c-0.11,0.655-0.188,1.318-0.339,1.962c-0.568,2.423-1.642,3.458-4.046,3.759c-2.629,0.329-5.259,0.502-7.89,0.499l0,0   c-0.031,0.001-0.063,0-0.095,0c-0.032,0-0.064,0.001-0.097,0l0,0c-2.63,0.003-5.26-0.17-7.888-0.499   c-2.405-0.301-3.477-1.336-4.046-3.759c-0.152-0.644-0.229-1.307-0.339-1.962c0-0.128,0-0.256,0-0.383   c0.07-0.341,0.188-0.68,0.203-1.023c0.092-2.195,0.219-4.393,0.23-6.587c0.068-13.412,0.11-26.825,0.163-40.236   c0.014-3.52,1.381-6.384,4.017-8.733c2.101-1.871,3.162-4.278,2.629-7.12c-0.719-3.843-0.33-7.631,0.401-11.396   c0.381-1.964,0.98-3.866,0.626-5.916c-0.139-0.805-0.073-1.664,0.018-2.485c0.084-0.759,0.314-1.439,0.005-2.261   c-0.279-0.741-0.38-1.712-0.142-2.447c0.375-1.161,0.379-2.283,0.275-3.441c-0.052-0.578,0.147-0.908,0.742-1.001   c0.655-0.104,1.304-0.243,1.957-0.366c0.383,0,0.766,0,1.149,0c0.064,0,0.128,0,0.191,0c0.384,0,0.768,0,1.152,0   c0.651,0.124,1.301,0.262,1.956,0.366c0.594,0.093,0.793,0.423,0.741,1.001c-0.104,1.158-0.101,2.28,0.275,3.441   c0.238,0.735,0.137,1.706-0.143,2.447c-0.309,0.822-0.079,1.502,0.005,2.261c0.091,0.822,0.156,1.681,0.019,2.485   c-0.354,2.05,0.244,3.952,0.626,5.916c0.73,3.766,1.12,7.553,0.4,11.396c-0.533,2.842,0.528,5.249,2.629,7.12   c2.637,2.35,4.003,5.214,4.018,8.733c0.053,13.411,0.094,26.824,0.162,40.236c0.012,2.194,0.138,4.392,0.229,6.587   C61.812,92.701,61.931,93.04,62,93.381z M58.749,50.022c0-0.243-0.013-0.487-0.022-0.861c-0.695,0.217-1.39,0.401-2.084,0.568   c-1.278-2.072-3.935-3.5-7.012-3.5c-3.079,0-5.715,1.429-6.993,3.501c-0.704-0.168-1.095-0.355-2.095-0.573   c0,0.496,0,0.794,0,1.093c0,11.558,0,23.117,0,34.675c0,2.118-0.018,2.106,0.883,2.518c3.127,1.432,6.279,1.845,9.459,1.675   c2.542-0.139,5.061-0.674,7.546-1.965c0.237-0.124,0.328-0.306,0.327-0.91C58.75,74.17,58.75,62.097,58.749,50.022z M49.631,35.454   c-2.873,0-5.201,1.454-5.201,3.248s2.328,3.249,5.201,3.249c2.872,0,5.201-1.454,5.201-3.249S52.503,35.454,49.631,35.454z" fill="#fff"></path></g><g display="none"><path display="inline" fill-rule="evenodd" clip-rule="evenodd" d="M65.775,44.869c-0.171,15.036-0.351,30.072-0.46,45.107   c-0.011,1.376,0.428,2.756,0.658,4.134c0,0.881,0,1.761,0,2.642c-0.468,1.55-1.253,2.761-3.055,2.917   c-1.253,0.109-2.507,0.344-3.759,0.332c-3.007-0.03-6.015-0.066-9.022-0.108c-3.007,0.042-6.015,0.078-9.022,0.108   c-1.252,0.012-2.505-0.223-3.758-0.332c-1.803-0.156-2.587-1.367-3.056-2.917c0-0.881,0-1.761,0-2.642   c0.231-1.378,0.669-2.758,0.659-4.134c-0.11-15.035-0.289-30.071-0.46-45.107c-0.004-0.319-0.129-0.635-0.199-0.953   c0-2.532,0-5.063,0-7.595c0.28-0.99,0.486-2.008,0.854-2.964c1.212-3.146,3.502-5.249,6.604-6.457   c1.67-0.65,2.35-1.898,2.379-3.561c0.04-2.239,0.059-4.484-0.035-6.721c-0.121-2.917-0.401-5.829-0.534-8.746   c-0.077-1.7,0.002-3.405,0.012-5.105c0.007-1.177,0.702-1.832,1.742-2.104c1.545-0.405,3.097-0.596,4.649-0.611V0.048   c0.055-0.001,0.11,0.001,0.165,0.001s0.11-0.002,0.165-0.001v0.003c1.552,0.015,3.105,0.206,4.65,0.611   c1.04,0.272,1.734,0.928,1.741,2.104c0.009,1.701,0.089,3.406,0.012,5.105c-0.132,2.917-0.413,5.829-0.532,8.746   c-0.095,2.237-0.076,4.482-0.036,6.721c0.028,1.662,0.709,2.91,2.379,3.561c3.102,1.208,5.392,3.311,6.604,6.457   c0.367,0.956,0.572,1.974,0.853,2.964c0,2.532,0,5.063,0,7.595C65.904,44.233,65.779,44.549,65.775,44.869z M37.405,44.524   c0,12.313,0,24.631,0,36.944c0,2.256,0.001,2.244,1.259,2.684c4.362,1.524,8.774,1.965,13.21,1.783   c3.547-0.148,7.067-0.716,10.534-2.092c0.332-0.134,0.464-0.327,0.462-0.971c-0.013-12.864-0.008-25.727-0.01-38.592   c0-0.259-0.018-0.518-0.032-0.917c-8.483,2.021-16.913,2.006-25.424-0.004C37.405,43.888,37.405,44.207,37.405,44.524z" fill="#fff"></path></g><g><g><path fill="#fff" d="M45.691,40.702c-0.003,0.03-0.007,0.061-0.012,0.09l-0.085,0.642c-0.103,0.864-0.056,1.726,0.146,2.637    c0.19,0.854,0.494,1.609,0.929,2.304c0.387,0.614,0.819,1.092,1.317,1.455c0.517,0.376,0.995,0.568,1.507,0.604    c0.443,0.031,0.887-0.07,1.317-0.33c0.348-0.21,0.654-0.501,0.935-0.891c0.411-0.568,0.699-1.225,0.885-2.011    c0.102-0.431,0.163-0.854,0.183-1.26c0.061-1.218-0.126-2.344-0.573-3.442c-0.352-0.874-0.817-1.578-1.423-2.156    c-0.485-0.464-0.979-0.757-1.512-0.899c-0.395-0.104-0.74-0.108-1.111-0.012c-0.458,0.117-0.845,0.353-1.224,0.745    c-0.449,0.463-0.792,1.045-1.05,1.78c-0.028,0.086-0.071,0.188-0.118,0.296L45.691,40.702z"></path></g><g><path d="M24.072,15.711c1.495-0.26,2.968-0.393,4.383-0.393c6.78,0,12.659,3.01,17.475,8.947c0.489,0.604,0.964,1.22,1.477,1.888    l1.725,2.222l1.082-4.815c1.737-7.636,6.009-13.053,12.698-16.098c3.031-1.378,6.195-2.078,9.402-2.078    c9.2,0,17.764,5.909,20.825,14.369c2.642,7.317,2.357,14.917-0.849,22.593c-0.146,0.351-0.307,0.69-0.461,1.036    c0.39-0.083,0.781-0.152,1.177-0.191c1.122-0.11,2.217-0.031,3.25,0.241c0.344,0.09,0.674,0.207,0.995,0.334    c2.396-5.997,3.258-11.815,2.601-17.692c-0.101-0.907-0.229-1.813-0.354-2.718l-0.188-1.354l-0.12-0.501    c-0.223-0.591-0.433-1.187-0.646-1.784c-0.463-1.314-0.942-2.674-1.563-3.962C92.466,6.363,82.816,0.296,72.396,0.296    c-1.218,0-2.445,0.085-3.648,0.254C58.694,1.96,51.356,7.479,46.942,16.953c-0.075,0.159-0.146,0.321-0.215,0.482    c-0.272-0.209-0.543-0.418-0.812-0.626c-1.117-0.865-2.171-1.681-3.332-2.405c-5.439-3.389-11.494-4.732-17.962-3.986    C11.812,11.905-0.693,23.382,0.552,40.011c0.058,0.76,0.146,1.518,0.233,2.276l0.128,1.116l0.207,0.899    c0.044,0.123,0.091,0.244,0.139,0.365c0.082,0.208,0.165,0.416,0.22,0.629c1.165,4.537,3.151,8.769,5.904,12.578    c3.489,4.832,8.054,8.898,13.956,12.438c4.414,2.646,8.974,5.206,13.384,7.681c2.484,1.393,4.967,2.785,7.438,4.201    c7.806,4.472,13.879,8.734,19.118,13.416c0.669,0.599,1.333,1.204,2.02,1.829l1.708,1.553l0.571-1.444    c0.113-0.276,0.213-0.522,0.305-0.771c1.675-4.54,3.833-9.134,6.393-13.667c-1.268-0.461-2.396-1.05-3.341-1.575l-1.175-0.659    c-0.043-0.022-0.083-0.046-0.124-0.069c-1.628,2.888-3.144,5.888-4.496,9.003c-0.055,0.129-0.115,0.258-0.174,0.392l-1.201-0.943    c-1.307-1.032-2.581-2.037-3.876-3.017c-5.97-4.52-12.589-8.314-18.325-11.515l-2.634-1.468c-4.325-2.404-8.798-4.89-13.088-7.499    c-6.016-3.655-10.423-7.781-13.473-12.61c-1.656-2.624-2.942-5.679-3.929-9.343C5.036,38.6,5.3,33.859,7.246,29.314    C10.52,21.663,16.181,17.086,24.072,15.711z" fill="#fff"></path></g><g><g><path fill-rule="evenodd" clip-rule="evenodd" d="M73.668,80.593c-0.072-0.032-0.144-0.068-0.218-0.093     c-1.095-0.376-2.118-0.901-3.127-1.462c-0.979-0.546-1.95-1.1-2.931-1.64c-0.729-0.401-1.481-0.76-2.253-1.074     c-0.908-0.371-1.842-0.668-2.806-0.855c-0.703-0.138-1.413-0.204-2.13-0.238c-1.23-0.061-2.464-0.022-3.696,0     c-1.005,0.021-2.011,0.032-3.019-0.031c-0.69-0.042-1.377-0.122-2.056-0.259c-0.836-0.166-1.636-0.436-2.39-0.835     c-1.126-0.599-2.016-1.457-2.716-2.514c-1.03-1.556-1.523-3.265-1.461-5.128c0.029-0.851,0.179-1.683,0.431-2.497     c0.487-1.571,1.301-2.956,2.356-4.206c1.061-1.255,2.309-2.294,3.699-3.163c0.536-0.335,1.09-0.633,1.653-0.92     c1.174-0.599,2.263-1.327,3.312-2.123c1.123-0.853,2.188-1.774,3.255-2.693c0.91-0.782,1.818-1.565,2.779-2.29     c0.775-0.583,1.58-1.124,2.446-1.563c0.929-0.472,1.898-0.804,2.938-0.917c0.807-0.088,1.605-0.041,2.396,0.143     c1.186,0.276,2.313,0.704,3.351,1.345c1.128,0.699,2.031,1.625,2.741,2.742c0.572,0.897,1.012,1.861,1.373,2.859     c0.381,1.054,0.735,2.115,1.095,3.176c0.383,1.118,0.782,2.23,1.264,3.312c0.547,1.224,1.197,2.391,1.958,3.494     c0.989,1.429,1.782,2.959,2.322,4.614c0.441,1.346,0.691,2.725,0.691,4.145c0,0.984-0.117,1.956-0.399,2.899     c-0.605,2.03-1.769,3.657-3.573,4.786c-1.432,0.896-2.994,1.378-4.692,1.389c-0.443,0.003-0.883-0.048-1.32-0.109     c-0.041-0.007-0.082-0.002-0.124-0.003C74.434,80.787,74.053,80.689,73.668,80.593z" fill="#fff"></path></g><g><path fill-rule="evenodd" clip-rule="evenodd" d="M86.56,28.966c0.107,0.043,0.214,0.089,0.321,0.132     c1.072,0.433,1.911,1.15,2.546,2.112c0.649,0.993,0.994,2.094,1.137,3.264c0.112,0.926,0.089,1.85-0.053,2.771     c-0.369,2.375-1.343,4.474-2.873,6.32c-0.819,0.992-1.776,1.828-2.889,2.478c-0.987,0.576-2.039,0.968-3.183,1.09     c-0.785,0.083-1.562,0.033-2.317-0.204c-1.599-0.498-2.715-1.55-3.437-3.042c-0.489-1.016-0.716-2.097-0.765-3.219     c-0.035-0.73,0.008-1.458,0.132-2.18c0.486-2.829,1.762-5.242,3.834-7.229c0.969-0.928,2.075-1.649,3.341-2.114     c0.893-0.328,1.814-0.495,2.767-0.438c0.188,0.011,0.375,0.041,0.562,0.063c0.038,0.003,0.073,0.001,0.109,0.002     C86.049,28.836,86.305,28.902,86.56,28.966z" fill="#fff"></path></g><g><path fill-rule="evenodd" clip-rule="evenodd" d="M43.101,39.289c0.043-0.091,0.092-0.18,0.125-0.276     c0.371-1.057,0.91-2.014,1.692-2.821c0.717-0.74,1.56-1.269,2.566-1.525c0.85-0.219,1.703-0.209,2.552,0.017     c1.063,0.281,1.967,0.84,2.755,1.595c0.937,0.892,1.617,1.957,2.101,3.148c0.604,1.493,0.855,3.048,0.777,4.656     c-0.031,0.597-0.119,1.188-0.255,1.772c-0.26,1.099-0.688,2.118-1.354,3.033c-0.483,0.669-1.063,1.234-1.77,1.661     c-0.92,0.557-1.919,0.811-2.995,0.736c-1.112-0.077-2.098-0.494-2.992-1.146c-0.836-0.608-1.505-1.374-2.055-2.246     c-0.623-0.993-1.046-2.065-1.298-3.205c-0.264-1.186-0.337-2.383-0.194-3.59c0.029-0.244,0.065-0.486,0.098-0.728     c0.003-0.021-0.007-0.045-0.01-0.067C42.931,39.966,43.016,39.628,43.101,39.289z" fill="#fff"></path></g><g><path fill-rule="evenodd" clip-rule="evenodd" d="M57.877,30.507c0.331-1.283,0.851-2.506,1.63-3.61     c0.592-0.84,1.295-1.565,2.16-2.126c0.936-0.605,1.951-0.952,3.071-0.954c1.184-0.002,2.246,0.372,3.204,1.056     c0.803,0.575,1.443,1.303,1.961,2.141c0.89,1.442,1.353,3.023,1.508,4.703c0.092,0.969,0.066,1.935-0.067,2.899     c-0.055,0.38-0.137,0.758-0.218,1.136c-0.147,0.693-0.369,1.362-0.655,2.009c-0.62,1.414-1.473,2.655-2.699,3.614     c-0.814,0.638-1.726,1.071-2.754,1.233c-0.876,0.139-1.735,0.057-2.573-0.239c-1.089-0.387-1.969-1.067-2.706-1.943     c-0.685-0.813-1.183-1.729-1.549-2.725c-0.539-1.478-0.748-3.007-0.688-4.576C57.536,32.248,57.661,31.383,57.877,30.507z" fill="#fff"></path></g><g><path fill-rule="evenodd" clip-rule="evenodd" d="M84.837,53.609c0.344-1.31,0.959-2.532,1.812-3.638     c0.771-1.001,1.681-1.854,2.747-2.534c1.191-0.762,2.479-1.264,3.894-1.404c0.756-0.074,1.505-0.032,2.24,0.161     c1.38,0.362,2.453,1.144,3.195,2.363c0.479,0.79,0.727,1.662,0.809,2.578c0.056,0.646,0.033,1.291-0.083,1.926     c-0.083,0.44-0.202,0.874-0.322,1.305c-0.145,0.522-0.364,1.018-0.615,1.499c-0.877,1.678-2.098,3.047-3.675,4.094     c-1.124,0.746-2.347,1.251-3.691,1.44c-0.755,0.107-1.51,0.099-2.26-0.054c-1.109-0.229-2.066-0.74-2.844-1.572     c-0.663-0.714-1.081-1.558-1.304-2.501c-0.188-0.803-0.219-1.62-0.127-2.438C84.659,54.435,84.729,54.04,84.837,53.609z" fill="#fff"></path></g></g></g></svg></g></g></svg>