<svg xmlns="http://www.w3.org/2000/svg" xmlns:xlink="http://www.w3.org/1999/xlink" version="1.1" id="CombinedIcon" x="0px" y="0px" width="32px" height="32px" viewBox="5.0 -10.0 100.0 135.0" enable-background="new 0 0 100 100" xml:space="preserve"><g id='gmarkerbase' transform='scale(3.95)'><svg xmlns:dc="http://purl.org/dc/elements/1.1/" xmlns:cc="http://creativecommons.org/ns#" xmlns:rdf="http://www.w3.org/1999/02/22-rdf-syntax-ns#" xmlns:svg="http://www.w3.org/2000/svg" xmlns="http://www.w3.org/2000/svg" xmlns:sodipodi="http://sodipodi.sourceforge.net/DTD/sodipodi-0.dtd" xmlns:inkscape="http://www.inkscape.org/namespaces/inkscape" id="markerbase" x="0px" y="0px" width="32px" height="32px" viewBox="0 0 32 32" enable-background="new 0 0 32 32" xml:space="preserve" version="0.48.4 r9939" docname="community.svg" class="injected-svg" style=""><metadata id="metadata19"><rdf:RDF><cc:Work about=""><dc:format>image/svg+xml</dc:format><dc:type resource="http://purl.org/dc/dcmitype/StillImage"></dc:type><dc:title></dc:title></cc:Work></rdf:RDF></metadata><defs id="defs17"></defs><sodipodi:namedview pagecolor="#ffffff" bordercolor="#666666" borderopacity="1" objecttolerance="10" gridtolerance="10" guidetolerance="10" pageopacity="0" pageshadow="2" window-width="640" window-height="480" id="namedview15" showgrid="false" zoom="7.375" cx="16" cy="16" window-x="488" window-y="115" window-maximized="0" current-layer="Layer_1"></sodipodi:namedview>
<path fill="#0433ff" d="M16,1c8.284,0,15,6.716,15,15s-6.716,15-15,15S1,24.284,1,16S7.716,1,16,1z" id="path3"></path>

</svg></g><g id='gmarkericon' transform='translate(18,4)'><g transform='scale(0.9)'><svg xmlns="http://www.w3.org/2000/svg" xmlns:xlink="http://www.w3.org/1999/xlink" version="1.1" x="0px" y="0px" viewBox="0 0 100 100" enable-background="new 0 0 100 100" xml:space="preserve"><g><path d="M95.604,34.131c-2.428,0-4.395,1.968-4.395,4.396v15.117H8.882v-25.75c0-2.428-1.968-4.395-4.396-4.395   s-4.395,1.967-4.395,4.395v44.543c0,2.428,1.967,4.396,4.395,4.396s4.396-1.968,4.396-4.396v-6.833H91.21v6.833   c0,2.428,1.967,4.396,4.395,4.396S100,74.865,100,72.438V38.526C100,36.099,98.032,34.131,95.604,34.131z" fill="#fff"></path><path d="M88.339,43.929c0-5.629-4.564-10.193-10.193-10.193H37.512v16.775h50.827V43.929z" fill="#fff"></path><path d="M29.024,29.335H17.119c-2.701,0-4.89,2.19-4.89,4.89v16.286h21.686V34.226C33.915,31.525,31.725,29.335,29.024,29.335z" fill="#fff"></path></g></svg></g></g></svg>