<svg version="1.1" id="Layer_1" xmlns="http://www.w3.org/2000/svg" xmlns:xlink="http://www.w3.org/1999/xlink" x="0px" y="0px" viewBox="0 0 1280 1280" enable-background="new 0 0 1280 1280" xml:space="preserve" class="menu_icon_build__sm" ng-class="{'menu_icon_build__sm--push': main.leftSideMenuOpen}">
					<path fill="#FFFFFF" fill-opacity="0.4" d="M676.3,791c-46.6,70.6-64.2,88.9-80.5,88.9c-11.3,0-16.9-8.5-19.1-24c-0.7-7.1-1.4-22.6-1.4-42.3
						c0-50.7,9.8-218.8,11.3-245.5c0,0-0.1,0-0.1,0c-92.5,191-110.2,314.1-224.1,314.1c-74.6,0-123.1-63.7-123.1-123.4
						c0-92.8,99.1-142.3,159.2-115.2c28.9,13,39.5,45.7,22.4,72.3c-10.2,15.9-28.5,24.8-47.2,20.1c-24.1-6.1-23.5-20.4-40.6-29.5
						c-24.1-12.7-53.8,7.4-57.2,52.2c-4.3,55.2,35,96.6,86.6,96.6c83.5,0,102.7-71.5,149.3-173.8c47.3-104.5,86.8-206.1,93.2-228
						c6.4-21.9,20.5-30.4,41.6-36c21.2-5.6,53.6-21.2,61.4-21.2c7.8,0,12.7,2.8,12.7,11.3c0,8.5-13.4,47.3-35.3,153.2
						c-20.1,96.2-21.8,203.3-21.9,207.4c0,0,0,0,0.1,0c3.5-5.2,140.7-206.7,160.9-256.8c20.5-50.8,30.4-84.7,57.2-93.9
						c26.8-9.2,65.6-18.4,76.2-18.4c8.5,0,13.4,3.5,13.4,13.4s-16.2,30.4-33.9,81.2c-15.5,43.8-86.8,246.3-86.8,325.4
						c0,20.5,9.9,31.1,26.1,31.1c27.2,0,89-72.1,91.4-75c4.7-5.4,11.5-0.6,6.8,5.2c-2.7,3.4-68.7,103-142.1,103
						c-52.9,0-69.9-30.4-69.9-65.6c0-31,24.7-142.4,45.8-227.1c0,0,0-0.1-0.1,0C805.4,596,721.9,721.9,676.3,791z"></path>
					</svg>