<svg xmlns="http://www.w3.org/2000/svg" xmlns:xlink="http://www.w3.org/1999/xlink" version="1.1" id="CombinedIcon" x="0px" y="0px" width="32px" height="32px" viewBox="5.0 -10.0 100.0 135.0" enable-background="new 0 0 100 100" xml:space="preserve"><g id='gmarkerbase' transform='scale(3.95)'><svg xmlns:dc="http://purl.org/dc/elements/1.1/" xmlns:cc="http://creativecommons.org/ns#" xmlns:rdf="http://www.w3.org/1999/02/22-rdf-syntax-ns#" xmlns:svg="http://www.w3.org/2000/svg" xmlns="http://www.w3.org/2000/svg" xmlns:sodipodi="http://sodipodi.sourceforge.net/DTD/sodipodi-0.dtd" xmlns:inkscape="http://www.inkscape.org/namespaces/inkscape" id="markerbase" x="0px" y="0px" width="32px" height="32px" viewBox="0 0 32 32" enable-background="new 0 0 32 32" xml:space="preserve" version="0.48.4 r9939" docname="community.svg" class="injected-svg" style=""><metadata id="metadata19"><rdf:RDF><cc:Work about=""><dc:format>image/svg+xml</dc:format><dc:type resource="http://purl.org/dc/dcmitype/StillImage"></dc:type><dc:title></dc:title></cc:Work></rdf:RDF></metadata><defs id="defs17"></defs><sodipodi:namedview pagecolor="#ffffff" bordercolor="#666666" borderopacity="1" objecttolerance="10" gridtolerance="10" guidetolerance="10" pageopacity="0" pageshadow="2" window-width="640" window-height="480" id="namedview15" showgrid="false" zoom="7.375" cx="16" cy="16" window-x="488" window-y="115" window-maximized="0" current-layer="Layer_1"></sodipodi:namedview>
<path fill="#ff2600" d="M16,1c8.284,0,15,6.716,15,15s-6.716,15-15,15S1,24.284,1,16S7.716,1,16,1z" id="path3"></path>

</svg></g><g id='gmarkericon' transform='translate(18,4)'><g transform='scale(0.9)'><svg xmlns="http://www.w3.org/2000/svg" xmlns:xlink="http://www.w3.org/1999/xlink" version="1.1" x="0px" y="0px" viewBox="0 0 100 100" enable-background="new 0 0 100 100" xml:space="preserve"><g><path fill-rule="evenodd" clip-rule="evenodd" d="M82.64,91.498L53.633,48.559l5.971-11.093h7.677c0.562,0,1.134-0.571,1.705-1.143   l14.226-24.732c1.126-2.562-1.998-3.703-3.133-1.713L67.28,30.646c-1.705,2.562-5.686,0.571-3.418-2.854L76.098,6.746   c1.134-1.99-1.713-3.98-3.41-1.42L60.452,25.801c-1.99,3.426-5.399,0.293-3.98-1.697L68.414,3.059   c1.42-2.562-1.42-4.274-2.562-1.99L50.786,24.952c-0.571,1.142-0.571,1.713-0.285,1.99l3.98,7.113l-5.122,7.684l-5.115-7.406   c0,0,7.398-8.81-2.847-20.475C31.445,1.917,22.913-1.771,18.933,1.068c-3.132,2.268-4.266,13.361,2.276,25.874   C27.75,39.749,36.846,38.036,39.13,37.759l5.971,10.522L17.514,91.221c-2.562,3.98,0,6.819,1.704,7.668   c1.705,0.864,5.408,1.99,7.962-2.839l22.18-40.101L73.822,97.47c1.419,2.283,4.544,3.409,6.827,1.712   C81.783,98.333,85.201,95.479,82.64,91.498" fill="#FFF" fill-opacity="0.4"></path></g></svg></g></g></svg>