<svg xmlns="http://www.w3.org/2000/svg" xmlns:xlink="http://www.w3.org/1999/xlink" version="1.1" id="CombinedIcon" x="0px" y="0px" width="32px" height="32px" viewBox="5.0 -10.0 100.0 135.0" enable-background="new 0 0 100 100" xml:space="preserve"><g id='gmarkerbase' transform='scale(3.95)'><svg xmlns:dc="http://purl.org/dc/elements/1.1/" xmlns:cc="http://creativecommons.org/ns#" xmlns:rdf="http://www.w3.org/1999/02/22-rdf-syntax-ns#" xmlns:svg="http://www.w3.org/2000/svg" xmlns="http://www.w3.org/2000/svg" xmlns:sodipodi="http://sodipodi.sourceforge.net/DTD/sodipodi-0.dtd" xmlns:inkscape="http://www.inkscape.org/namespaces/inkscape" id="markerbase" x="0px" y="0px" width="32px" height="32px" viewBox="0 0 32 32" enable-background="new 0 0 32 32" xml:space="preserve" version="0.48.4 r9939" docname="community.svg" class="injected-svg" style=""><metadata id="metadata19"><rdf:rdf><cc:work about=""><dc:format>image/svg+xml</dc:format><dc:type resource="http://purl.org/dc/dcmitype/StillImage"></dc:type><dc:title></dc:title></cc:work></rdf:rdf></metadata><defs id="defs17"></defs><sodipodi:namedview pagecolor="#ffffff" bordercolor="#666666" borderopacity="1" objecttolerance="10" gridtolerance="10" guidetolerance="10" pageopacity="0" pageshadow="2" window-width="640" window-height="480" id="namedview15" showgrid="false" zoom="7.375" cx="16" cy="16" window-x="488" window-y="115" window-maximized="0" current-layer="Layer_1"></sodipodi:namedview>
<path fill="#ff55c6" d="M16,1c8.284,0,15,6.716,15,15s-6.716,15-15,15S1,24.284,1,16S7.716,1,16,1z" id="path3"></path>

</svg></g><g id='gmarkericon' transform='translate(18,4)'><g transform='scale(0.9)'><svg xmlns="http://www.w3.org/2000/svg" xmlns:xlink="http://www.w3.org/1999/xlink" version="1.1" x="0px" y="0px" viewBox="0 0 100 100" style="enable-background:new 0 0 100 100;" xml:space="preserve"><g><path d="M38.906,38.529c-1.908,0-3.457,1.549-3.457,3.463c0,1.918,1.549,3.465,3.457,3.465c1.918,0,3.467-1.547,3.467-3.465   C42.373,40.078,40.824,38.529,38.906,38.529z" fill="#fff" fill-opacity="0.4"></path><path d="M71.109,28.133v-3.271c0-7.211-2.164-13.408-5.938-17.842C61.42,2.572,56.016-0.021,50.189,0   c-5.84-0.021-11.248,2.572-14.998,7.02c-3.771,4.434-5.939,10.631-5.939,17.842v3.271H15.484V100h69.402V28.133H71.109z    M40.104,70.281l-9.963-24.004l6.135-10.867l12.029,3.328l9.971,24L40.104,70.281z M64.117,28.133H36.256v-3.271   C36.412,13.145,42.779,7.045,50.189,7c7.395,0.045,13.762,6.145,13.928,17.861V28.133z" fill="#fff" fill-opacity="0.4"></path></g></svg></g></g></svg>