<svg xmlns="http://www.w3.org/2000/svg" xmlns:xlink="http://www.w3.org/1999/xlink" version="1.1" id="CombinedIcon" x="0px" y="0px" width="32px" height="32px" viewBox="5.0 -10.0 100.0 135.0" enable-background="new 0 0 100 100" xml:space="preserve"><g id='gmarkerbase' transform='scale(3.95)'><svg xmlns:dc="http://purl.org/dc/elements/1.1/" xmlns:cc="http://creativecommons.org/ns#" xmlns:rdf="http://www.w3.org/1999/02/22-rdf-syntax-ns#" xmlns:svg="http://www.w3.org/2000/svg" xmlns="http://www.w3.org/2000/svg" xmlns:sodipodi="http://sodipodi.sourceforge.net/DTD/sodipodi-0.dtd" xmlns:inkscape="http://www.inkscape.org/namespaces/inkscape" id="markerbase" x="0px" y="0px" width="32px" height="32px" viewBox="0 0 32 32" enable-background="new 0 0 32 32" xml:space="preserve" version="0.48.4 r9939" docname="community.svg" class="injected-svg" style=""><metadata id="metadata19"><rdf:RDF><cc:Work about=""><dc:format>image/svg+xml</dc:format><dc:type resource="http://purl.org/dc/dcmitype/StillImage"></dc:type><dc:title></dc:title></cc:Work></rdf:RDF></metadata><defs id="defs17"></defs><sodipodi:namedview pagecolor="#ffffff" bordercolor="#666666" borderopacity="1" objecttolerance="10" gridtolerance="10" guidetolerance="10" pageopacity="0" pageshadow="2" window-width="640" window-height="480" id="namedview15" showgrid="false" zoom="7.375" cx="16" cy="16" window-x="488" window-y="115" window-maximized="0" current-layer="Layer_1"></sodipodi:namedview>
<path fill="#885f33" d="M16,1c8.284,0,15,6.716,15,15s-6.716,15-15,15S1,24.284,1,16S7.716,1,16,1z" id="path3"></path>

</svg></g><g id='gmarkericon' transform='translate(18,4)'><g transform='scale(0.9)'><svg xmlns="http://www.w3.org/2000/svg" xmlns:xlink="http://www.w3.org/1999/xlink" version="1.1" x="0px" y="0px" viewBox="0 0 100 100" enable-background="new 0 0 100 100" xml:space="preserve"><g><rect x="13.182" y="44.157" fill="#fff" fill-opacity="0.4" width="8.182" height="36.818"></rect><rect x="45.909" y="44.157" fill="#fff" fill-opacity="0.4" width="8.182" height="36.818"></rect><rect x="78.637" y="44.157" fill="#fff" fill-opacity="0.4" width="8.182" height="36.818"></rect><rect x="29.546" y="44.157" fill="#fff" fill-opacity="0.4" width="8.182" height="36.818"></rect><rect x="62.272" y="44.157" fill="#fff" fill-opacity="0.4" width="8.182" height="36.818"></rect><rect x="5" y="83.021" fill="#fff" fill-opacity="0.4" width="90" height="8.182"></rect><path fill="#fff" fill-opacity="0.4" d="M57.49,10.913C55.189,9.504,52.597,8.797,50,8.797c-2.593,0-5.193,0.707-7.49,2.115L5,33.93v8.182h90V33.93   L57.49,10.913z M26.514,33.93l19.995-12.273h6.982l20,12.273H26.514z"></path></g></svg></g></g></svg>